<svg xmlns="http://www.w3.org/2000/svg" viewBox="0 0 320 120" role="img" aria-labelledby="findeco-logo-title">
  <title id="findeco-logo-title">FINDECO - Servicios Financieros Inmediatos</title>
  <path fill="#F58220" d="M72 28c-8 6-14 16-12 26 2 8 10 14 18 12 6-2 10-8 11-14 2-10-4-20-12-26-3-2-7-2-5 2z"/>
  <path fill="#F58220" d="M58 34c-4 5-5 12-2 18 3 6 10 9 16 7 5-2 8-7 8-13 0-8-6-15-14-16-4 0-6 2-8 4z"/>
  <path fill="#0054A6" d="M248 28c8 6 14 16 12 26-2 8-10 14-18 12-6-2-10-8-11-14-2-10 4-20 12-26 3-2 7-2 5 2z"/>
  <path fill="#0054A6" d="M262 34c4 5 5 12 2 18-3 6-10 9-16 7-5-2-8-7-8-13 0-8 6-15 14-16 4 0 6 2 8 4z"/>
  <ellipse cx="160" cy="52" rx="88" ry="4" fill="#4CAF50"/>
  <text x="160" y="82" text-anchor="middle" font-family="Georgia, 'Times New Roman', serif" font-size="34" font-weight="700" fill="#0054A6">FINDECO</text>
  <text x="160" y="104" text-anchor="middle" font-family="Arial, Helvetica, sans-serif" font-size="9.5" font-weight="600" letter-spacing="1.2" fill="#64748b">SERVICIOS FINANCIEROS INMEDIATOS</text>
</svg>
